<?xml version="1.0" encoding="utf-8"?>
<!-- Generator: Adobe Illustrator 26.2.1, SVG Export Plug-In . SVG Version: 6.00 Build 0)  -->
<svg version="1.1" id="Layer_1" xmlns="http://www.w3.org/2000/svg" xmlns:xlink="http://www.w3.org/1999/xlink" x="0px" y="0px"
	 viewBox="0 0 502 288" style="enable-background:new 0 0 502 288;" xml:space="preserve">
<style type="text/css">
	.st0{fill:#F6A6C0;}
</style>
<path class="st0" d="M302.28,0.12c-1.48,5.47-2.71,11.02-4.51,16.38c-1.48,4.4-3.77,8.51-5.46,12.84
	c-5,12.86-9.97,25.73-14.78,38.67c-3.18,8.56-6.04,17.24-9.07,25.86c-2.47,7.02-4.97,14.03-7.67,21.67
	c9.65,1.74,19.17,3.32,28.63,5.21c8.83,1.77,17.56,4.05,26.4,5.78c8.12,1.6,16.29,3.15,24.51,4.04c8.71,0.94,14.69,4.87,17.76,13.11
	c1.58,4.25,3.26,8.46,5.36,13.89c-8.64,0-15.57,0.12-22.5-0.03c-10.93-0.23-21.86-0.67-32.79-0.95
	c-14.09-0.37-28.19-0.45-42.26-1.11c-5.9-0.28-11.75-1.72-17.93-2.68c-3.21,9.48-6.03,18-8.98,26.46c-3.14,9-6.47,17.94-9.6,26.95
	c-2.77,7.96-5.37,15.97-8.05,23.95c-3.96,11.77-7.87,23.57-12.01,35.28c-0.45,1.27-2.15,2.39-3.52,2.98
	c-7.73,3.29-15.52,6.46-23.35,9.49c-1.26,0.49-2.88,0.07-5.57,0.07c1.07-6.18,1.98-11.83,3.03-17.45
	c1.49-7.97,2.99-15.93,4.64-23.87c2.28-10.94,4.66-21.86,7.08-32.78c1.15-5.2,2.57-10.33,3.72-15.53
	c2.26-10.23,4.4-20.49,6.62-30.73c1.41-6.51,2.97-13,4.15-19.55c0.21-1.17-0.85-2.87-1.8-3.89c-4.21-4.54-8.72-8.8-12.84-13.41
	c-2.45-2.74-4.36-5.96-7.19-9.9c-1.78,6.28-3.23,11.54-4.78,16.78c-1.87,6.3-3.93,12.54-5.7,18.86c-0.75,2.68-0.73,5.57-1.48,8.25
	c-3.16,11.18-6.68,22.26-9.67,33.48c-2.35,8.84-3.88,17.9-6.21,26.74c-2.58,9.75-5.8,19.33-8.48,29.06c-2,7.27-3.79,14.61-5.26,22
	c-0.93,4.7-2.79,7.76-7.73,9.31c-5.35,1.67-10.27,4.66-15.56,6.59c-2.81,1.03-6,1.02-10.43,1.7c1.28-8.99,2.56-16.82,3.46-24.69
	c0.66-5.73,0.67-11.53,1.24-17.27c1.15-11.67,2.48-23.32,3.74-34.98c0.07-0.66,0.15-1.31,0.21-1.97
	c1.32-13.31,2.69-26.63,3.95-39.95c1.08-11.36,2.04-22.74,3.05-34.11c0.33-3.66-0.11-7.64,1.24-10.88c1.14-2.74,3.98-5.74,6.73-6.65
	c8.41-2.79,10.88-10.51,15.27-16.62c3-4.17,5.02-9.19,8.54-12.78c3.2-3.26,7.87-5.07,11.85-7.59c9.17-5.81,18.31-11.69,27.51-17.46
	c0.83-0.52,2.05-0.44,3.97-0.81c-0.48,3.23-0.56,5.85-1.3,8.28c-1.81,5.94-3.94,11.78-5.9,17.68c-1.4,4.23-2.84,8.46-3.96,12.77
	c-0.16,0.6,1.27,2.1,2.22,2.41c7.1,2.36,14.27,4.53,22.12,6.98c1.71-7.85,3.07-14.35,4.55-20.81c1.3-5.67,2.48-11.39,4.23-16.92
	c0.55-1.73,2.57-3.54,4.34-4.25c7.57-3.01,12.28-8.83,16.35-15.44c4.01-6.52,7.56-13.42,12.33-19.33c2.89-3.57,7.7-5.61,11.68-8.29
	c9.06-6.1,18.13-12.2,27.22-18.25c1.47-0.98,3.1-1.72,4.66-2.57C299.62,0.12,300.95,0.12,302.28,0.12z"/>
<path class="st0" d="M-0.12,122.69c4.77-2.15,8.61-6.56,14.51-5.95c0.63,0.07,1.26,0.24,1.84,0.35c0,11.39,0,22.59-0.01,33.8
	c0,0.48-0.28,0.96-0.31,1.44c-0.69,10.92-1.45,21.83-2.03,32.75c-0.45,8.58-1.09,17.18-0.87,25.75c0.12,4.72,0.92,9.88,3.07,13.98
	c2.68,5.14,7.36,8.47,13.71,9.69c7.71,1.49,15.17,4.28,22.77,6.42c1.73,0.49,3.55,0.72,5.34,0.89c4.71,0.46,9.44,0.83,14.86,1.29
	c1.33-21.34,2.66-42.45,3.99-63.81c9.43-4.26,19.45-3.5,29.29-3.57c1.17-0.01,3.39,2.78,3.39,4.27c-0.04,12.17-0.61,24.33-0.8,36.49
	c-0.15,9.26,0.36,18.54-0.06,27.78c-0.47,10.4-1.72,20.77-2.48,31.16c-0.17,2.34,0.3,4.73,0.56,8.24
	c-5.66-1.13-10.63-2.24-15.64-3.09c-3.72-0.63-7.49-1.04-11.25-1.37c-4.93-0.44-10.14,0.15-14.75-1.26c-6.35-1.94-13-1.7-19.33-5.28
	c-8.27-4.68-17.21-9.33-27.32-9.39c-2.83-0.02-6.51-1.46-7.12,3.96c-0.13,1.16-5.3,1.76-7.74,2.49c-1.58-2.41-2.59-3.97-3.61-5.53
	c0-1.99,0-3.99,0-5.98c0.33-1.37,0.95-2.74,0.95-4.11c0.06-18.85,0.06-37.71,0-56.56c0-1.37-0.62-2.74-0.95-4.11
	C-0.12,169.86-0.12,146.28-0.12,122.69z"/>
<path class="st0" d="M501.88,20.05c-3.08,4.53-6.32,8.96-9.2,13.62c-4.82,7.76-9.63,15.54-14,23.55c-2.13,3.91-3.12,8.42-4.88,12.54
	c-2.89,6.78-5.8,13.56-9.04,20.17c-4.21,8.6-8.83,17-13.14,25.56c-4.48,8.89-8.84,17.84-13.18,26.79
	c-3.19,6.59-6.19,13.27-9.42,19.83c-8.68,17.59-17.44,35.13-26.17,52.7c-1.59,3.2-2.92,6.55-4.77,9.58c-1.07,1.75-2.95,3-4.47,4.47
	c-0.58-0.39-1.16-0.78-1.73-1.17c0.65-1.72,1.33-3.43,1.96-5.16c2.77-7.57,5.48-15.17,8.3-22.72c4.52-12.07,9.38-24.01,13.58-36.19
	c2.66-7.71,4.19-15.81,6.55-23.64c2.63-8.73,5.79-17.3,8.39-26.04c2.42-8.15,4.23-16.48,6.62-24.64c2.56-8.72,5.59-17.31,8.23-26.02
	c0.85-2.81,0.98-5.83,1.71-8.68c2.36-9.25,4.92-18.45,7.25-27.71c0.59-2.35,0.58-4.85,0.95-8.27c5.4,1.25,10.53,2.43,15.66,3.61
	c1.09,0.25,2.28,0.89,3.25,0.66c7.48-1.83,14.88-4,22.4-5.64c1.51-0.33,3.42,1.15,5.15,1.8C501.88,19.39,501.88,19.72,501.88,20.05z
	"/>
<path class="st0" d="M438.02,8.25c-2.24,6.05-3.96,11.21-6.03,16.22c-5.26,12.73-10.8,25.34-16,38.1
	c-4.57,11.2-8.67,22.58-13.27,33.76c-4,9.72-8.59,19.2-12.59,28.92c-4.62,11.22-8.73,22.66-13.37,33.88
	c-3.94,9.53-8.46,18.81-12.45,28.31c-3.9,9.27-7.35,18.73-11.21,28.01c-1.33,3.19-3.32,6.1-5.01,9.14
	c-0.74-0.28-1.48-0.57-2.22-0.85c0.87-4.24,1.52-8.54,2.65-12.71c2.07-7.64,4.35-15.22,6.67-22.79c2.88-9.36,6.07-18.63,8.8-28.04
	c2.32-8.01,4.53-16.08,6.12-24.25c1.75-8.95,2.16-18.19,4.21-27.06c2.16-9.38,5.57-18.48,8.43-27.7c1.44-4.65,3.07-9.26,4.28-13.98
	c3.04-11.91,5.97-23.85,8.78-35.82c1.02-4.37,0.99-9.07,2.55-13.19c0.82-2.17,3.84-4.42,6.24-4.94c9.36-2.04,18.86-3.42,28.31-4.99
	C434,8.09,435.16,8.25,438.02,8.25z"/>
<path class="st0" d="M310.45,117.94c3.63-10.1,7.13-20.11,10.83-30.05c2.13-5.72,4.56-11.33,6.87-16.98
	c0.24-0.58,0.55-1.59,0.89-1.61c5.03-0.38,10.08-0.73,15.12-0.72c0.43,0,1.62,3.02,1.16,4.05c-7.11,15.93-17.97,29.47-28.09,43.49
	C315.5,118.5,313.44,119.89,310.45,117.94z"/>
<path class="st0" d="M302.99,62.83c4.4,2.95,7.78,4.34,9.82,6.83c1.9,2.32,4.18,4.36,2.07,9.24c-4.4,10.19-6.49,21.37-9.67,32.11
	c-0.39,1.32-1.62,2.39-2.46,3.57c-1.14-1.27-2.99-2.39-3.27-3.83c-0.54-2.72-0.19-5.62-0.19-8.44c-0.01-5.48-0.44-11.01,0.11-16.43
	C300.13,78.54,301.63,71.28,302.99,62.83z"/>
<path class="st0" d="M343.86,250.76c-1.19,5.33-2.11,10.32-3.43,15.2c-1.27,4.66-2.54,9.4-4.59,13.75
	c-2.07,4.4-6.49,3.87-10.35,2.86c-1.01-0.27-2.4-2.7-2.11-3.7c1.89-6.49,4.14-12.88,6.4-19.26c0.47-1.33,1.48-2.46,2.18-3.71
	C334.65,251.05,336.73,249.98,343.86,250.76z"/>
<path class="st0" d="M391.08,253.18c-1.34,10.41-2.3,20.88-4.21,31.18c-0.79,4.26-5.42,2.57-8.48,2.68
	c-2.56,0.09-4.25-1.01-4.31-4.13c-0.12-5.8,1.03-11.05,4.28-16.02c2.33-3.57,3.57-7.85,5.75-11.54c0.94-1.59,3.06-2.49,4.64-3.7
	C389.53,252.16,390.3,252.67,391.08,253.18z"/>
</svg>
